<?xml version="1.0" standalone="no"?>
<!DOCTYPE svg PUBLIC "-//W3C//DTD SVG 20010904//EN"
 "http://www.w3.org/TR/2001/REC-SVG-20010904/DTD/svg10.dtd">
<svg version="1.0" xmlns="http://www.w3.org/2000/svg"
 width="986.000000pt" height="986.000000pt" viewBox="0 0 986.000000 986.000000"
 preserveAspectRatio="xMidYMid meet">

<g transform="translate(0.000000,986.000000) scale(0.100000,-0.100000)"
fill="#000000" stroke="none">
<path d="M2217 6169 c-153 -334 -399 -864 -453 -976 -36 -76 -88 -187 -116
-248 -27 -60 -70 -154 -94 -207 -24 -54 -44 -100 -44 -103 0 -3 62 -5 138 -5
l137 1 62 137 c34 75 85 189 113 252 28 63 55 119 59 125 5 5 57 116 115 245
59 129 111 239 115 243 5 4 43 -70 86 -165 91 -201 203 -443 285 -613 31 -66
67 -144 80 -172 l22 -53 139 0 c77 0 139 2 139 4 0 5 -69 153 -141 304 -60
125 -144 306 -449 967 -84 182 -154 332 -156 334 -2 2 -19 -30 -37 -70z"/>
<path d="M3350 5432 l0 -812 125 0 125 0 0 346 c0 211 4 343 9 339 5 -3 114
-180 242 -393 127 -213 237 -393 243 -400 10 -10 65 76 257 395 l244 407 3
-347 2 -347 125 0 125 0 0 805 c0 443 -2 805 -3 805 -2 0 -170 -277 -373 -615
-203 -338 -372 -611 -376 -607 -4 4 -172 281 -373 616 -201 336 -368 612 -370
615 -3 2 -5 -361 -5 -807z"/>
<path d="M8906 6189 c-13 -30 -55 -121 -94 -204 -314 -678 -622 -1352 -622
-1360 0 -3 62 -5 138 -5 l137 1 62 137 c242 535 396 868 402 875 8 8 39 -57
213 -448 50 -110 121 -265 160 -345 39 -80 77 -162 85 -182 l15 -38 139 0 c76
0 139 2 139 4 0 6 -77 172 -142 306 -34 69 -71 150 -83 180 -24 60 -514 1122
-521 1129 -2 2 -15 -20 -28 -50z"/>
<path d="M5728 6170 c-319 -58 -576 -296 -654 -605 -24 -93 -24 -293 -1 -388
47 -191 183 -379 354 -491 l41 -28 -43 -61 c-82 -119 -198 -321 -284 -497 -99
-201 -143 -304 -213 -505 l-48 -140 5 85 c3 47 10 264 16 483 l11 399 51 106
c44 91 52 116 52 166 0 66 -14 83 -59 72 -33 -8 -50 -45 -66 -142 -14 -87 -34
-148 -77 -243 -128 -281 -414 -679 -717 -998 -96 -101 -113 -133 -74 -141 34
-7 610 742 794 1033 l49 77 3 -318 c2 -284 -6 -508 -24 -630 -5 -31 -3 -42 9
-47 30 -11 48 20 86 153 66 226 152 430 279 660 66 119 230 370 279 428 l28
33 51 -20 c99 -38 210 -54 329 -48 131 7 203 25 310 76 216 103 383 306 441
536 24 97 24 294 0 390 -42 163 -136 312 -265 422 -83 71 -219 143 -316 169
-70 18 -279 27 -347 14z m263 -254 c91 -20 175 -65 250 -133 126 -117 183
-245 183 -413 0 -166 -46 -274 -163 -390 -116 -115 -241 -169 -390 -170 -57 0
-181 18 -181 27 0 3 39 47 86 98 76 83 85 97 82 127 -2 24 -8 34 -24 36 -15 2
-42 -23 -110 -104 -49 -59 -92 -112 -96 -118 -20 -30 -176 99 -240 199 -111
171 -111 419 0 590 134 206 364 301 603 251z"/>
<path d="M540 5370 l0 -750 440 0 440 0 0 125 0 125 -315 0 -315 0 0 625 0
625 -125 0 -125 0 0 -750z"/>
<path d="M6880 5371 l0 -751 350 0 c371 0 435 6 557 52 125 46 295 193 371
321 131 218 131 532 0 755 -18 32 -76 100 -128 152 -77 77 -111 103 -180 138
-150 74 -158 75 -587 80 l-383 3 0 -750z m749 484 c35 -9 87 -28 115 -43 72
-38 175 -145 209 -215 30 -62 57 -169 57 -227 0 -58 -27 -165 -57 -227 -39
-80 -142 -182 -224 -221 -95 -45 -149 -52 -384 -52 l-215 0 0 500 0 500 218 0
c158 0 234 -4 281 -15z"/>
<path d="M3898 4429 c-90 -52 -403 -689 -340 -689 5 0 30 27 56 59 54 68 118
116 141 107 10 -3 15 -19 15 -45 0 -35 -5 -44 -37 -67 -66 -49 -80 -77 -43
-89 30 -10 64 17 90 70 18 38 60 75 84 75 3 0 4 -17 3 -37 -2 -32 2 -38 24
-47 21 -7 36 -4 68 12 23 12 41 18 41 14 0 -5 -27 -74 -59 -155 -41 -100 -73
-164 -102 -200 -23 -29 -28 -38 -10 -19 17 18 31 27 31 21 0 -6 -25 -60 -57
-121 -73 -143 -133 -214 -133 -158 0 28 29 82 84 160 36 49 38 55 12 25 -83
-95 -129 -207 -90 -222 49 -19 120 77 225 307 61 134 79 164 132 220 52 55 54
57 10 15 -29 -27 -53 -46 -53 -43 0 3 29 72 65 153 36 81 63 151 60 156 -14
21 -42 5 -107 -61 -95 -96 -133 -96 -62 1 34 47 37 69 9 69 -7 0 -26 -15 -42
-34 -15 -18 -47 -43 -70 -55 l-43 -21 0 34 c0 34 -21 66 -43 66 -20 0 -72 -36
-110 -75 -21 -21 -37 -36 -37 -33 0 19 38 90 68 128 23 28 27 38 12 25 -39
-33 148 315 207 386 24 29 28 30 35 13 5 -13 7 -6 5 20 -2 42 -12 51 -39 35z
m-148 -648 c0 -6 -11 -23 -24 -38 -18 -21 -28 -25 -36 -17 -8 8 -3 18 20 38
34 28 40 31 40 17z"/>
<path d="M5590 4039 c-18 -33 -9 -64 20 -64 28 0 57 42 47 68 -9 24 -54 21
-67 -4z"/>
<path d="M3719 4013 c-13 -16 -12 -17 4 -4 16 13 21 21 13 21 -2 0 -10 -8 -17
-17z"/>
<path d="M6038 3968 c-27 -22 -48 -62 -48 -89 0 -43 -153 -239 -187 -239 -21
0 -33 35 -24 67 14 49 31 75 88 133 52 53 68 90 39 90 -8 0 -37 -26 -65 -58
-82 -94 -148 -116 -77 -26 34 45 44 73 30 87 -12 11 -42 -12 -65 -50 -13 -21
-69 -86 -126 -144 -57 -59 -103 -111 -103 -115 0 -5 42 33 93 84 88 87 93 91
102 69 8 -17 18 -22 47 -21 35 1 36 0 27 -23 -24 -63 0 -123 49 -123 37 0 173
142 206 216 1 1 16 5 34 9 31 6 32 6 32 -28 0 -65 42 -55 157 34 l61 48 -24
-42 c-45 -79 -24 -108 49 -71 31 16 157 113 157 121 0 6 -20 -7 -80 -52 -30
-23 -68 -50 -84 -61 l-30 -19 38 67 c21 38 36 78 34 90 -3 24 -28 34 -56 23
-9 -4 -33 -8 -52 -9 -19 -1 -70 -21 -113 -44 -103 -55 -111 -55 -85 7 28 65
15 100 -24 69z m167 -98 c-3 -5 -16 -15 -28 -21 -19 -9 -19 -8 3 10 28 23 34
26 25 11z"/>
<path d="M5376 3942 c-3 -5 -16 -7 -29 -5 -30 6 -125 -37 -159 -72 -19 -19
-28 -38 -28 -60 0 -62 44 -52 153 32 l59 46 -21 -41 c-49 -96 -6 -110 101 -32
37 27 68 49 68 47 0 -1 -33 -83 -73 -183 -63 -156 -81 -191 -136 -260 -60 -76
-61 -77 -11 -24 28 30 50 51 48 45 -25 -63 -116 -232 -138 -255 -38 -40 -54
-39 -46 3 4 25 3 28 -5 14 -17 -29 -7 -72 18 -75 52 -7 118 85 227 318 32 69
67 135 78 147 11 12 17 26 14 32 -4 6 20 70 54 143 62 137 70 165 46 174 -19
7 -56 -13 -56 -31 0 -15 -159 -140 -166 -132 -3 2 12 31 31 63 43 70 44 107 3
112 -14 2 -29 -1 -32 -6z m-96 -72 c-35 -24 -54 -31 -30 -11 14 11 30 21 35
21 6 0 3 -5 -5 -10z"/>
<path d="M4185 3818 l-80 -83 83 80 c76 74 87 85 79 85 -1 0 -38 -37 -82 -82z"/>
<path d="M5229 3313 c-13 -16 -12 -17 4 -4 9 7 17 15 17 17 0 8 -8 3 -21 -13z"/>
</g>
</svg>
